:SAMPLES-PER-SECOND 30
:FULLY-SPECIFIED
:DEGREES
50
root  14.1731 39.8371 0.471817 -4.39009 -89.7909 2.38251
RightUpLeg  -0.356997 -9.02951 -6.0231
RightLeg  5.39064 5.21218 0.338474
RightFoot  -3.56435 -0.254009 3.3812
RightToes  -8.73116e-010 0 -3.6325e-017
Spine  5.2452 0.602815 5.85767
Spine1  5.31844 1.38224 -2.52093
HEad  -4.08232 -0.714708 -6.87744
LeftShoulder1  -0.645806 5.43297 -27.2479
LeftArm  -14.682 10.9597 -37.1293
LeftForeArm  23.3192 -10.7621 -3.04161
LeftHand  -0.0347602 2.23205 0.859089
RightShoulder  -0.391725 -4.85595 22.0101
RightArm  -3.46024 -0.0371856 33.8066
RightForeArm  11.7815 8.24374 0.521043
RightHand  -0.160166 3.0945 -2.42099
LeftUpLeg  1.38974 9.20122 9.03773
LeftLeg  1.96811 -5.48455 0.647424
LeftFoot  -1.09584 0.492674 -5.42162
LeftToes  -5.63919e-011 3.32596e-011 1.92487e-011
51
root  14.2272 39.7899 0.348366 -136.789 -89.6503 134.946
RightUpLeg  -1.23863 -8.87614 -5.87856
RightLeg  6.53493 5.6575 0.439478
RightFoot  -4.46821 -0.229759 3.30648
RightToes  -8.73116e-010 0 -3.6325e-017
Spine  5.63579 0.701354 6.76175
Spine1  5.81878 1.65408 -3.02378
HEad  -4.41429 -0.230599 -7.01007
LeftShoulder1  -0.819697 5.82325 -29.1694
LeftArm  -13.3779 13.005 -39.802
LeftForeArm  24.3364 -9.33934 -3.71246
LeftHand  -0.0225791 3.15043 0.310231
RightShoulder  -0.479066 -5.09244 23.2745
RightArm  -3.31034 -0.86157 37.0274
RightForeArm  13.1734 9.09618 0.663296
RightHand  -0.189345 2.88099 -2.88655
LeftUpLeg  0.934685 9.34183 9.17504
LeftLeg  2.63253 -5.19918 0.491882
LeftFoot  -1.45348 0.493616 -5.60243
LeftToes  -5.63919e-011 3.32596e-011 1.92487e-011
52
root  14.2582 39.7307 0.20608 -142.482 -89.5598 140.68
RightUpLeg  -1.95249 -8.64518 -5.65038
RightLeg  7.83823 5.5359 0.466779
RightFoot  -5.5324 -0.194943 3.11941
RightToes  -8.73116e-010 0 -3.6325e-017
Spine  6.32737 0.645698 7.61063
Spine1  5.87396 1.75736 -3.3695
HEad  -4.18905 0.468102 -7.19798
LeftShoulder1  -0.927177 6.04107 -30.3719
LeftArm  -12.2609 15.9929 -42.4398
LeftForeArm  25.2716 -8.79099 -4.37239
LeftHand  -0.00498381 2.96588 -0.538628
RightShoulder  -0.61226 -5.43909 24.9142
RightArm  -2.56646 -2.3228 39.1162
RightForeArm  13.9809 11.0868 1.12102
RightHand  -0.209901 2.45091 -3.30396
LeftUpLeg  0.375225 9.35189 9.3135
LeftLeg  3.63041 -5.1513 0.467946
LeftFoot  -2.06997 0.491368 -5.91187
LeftToes  -5.63919e-011 3.32596e-011 1.92487e-011
53
root  14.2341 39.6511 0.0842277 -159.624 -89.5849 157.622
RightUpLeg  -2.25283 -8.30994 -5.30173
RightLeg  9.10741 5.39203 0.392513
RightFoot  -7.03522 -0.190967 3.8092
RightToes  -8.73116e-010 0 -3.6325e-017
Spine  6.88015 0.613755 9.16366
Spine1  6.26968 1.98095 -3.90857
HEad  -4.04931 1.66742 -7.95133
LeftShoulder1  -0.97641 6.08088 -31.7146
LeftArm  -10.6264 18.6814 -43.9277
LeftForeArm  27.0025 -8.40746 -5.31126
LeftHand  0.0210211 2.76635 -1.64377
RightShoulder  -0.722054 -5.71876 25.9469
RightArm  -2.02325 -4.49484 41.0765
RightForeArm  14.8456 13.657 1.65459
RightHand  -0.24844 3.02974 -3.6557
LeftUpLeg  -0.134203 9.1127 9.58968
LeftLeg  5.2142 -5.05787 0.567515
LeftFoot  -3.10169 0.487132 -6.49817
LeftToes  -5.63919e-011 3.32596e-011 1.92487e-011
54
root  14.1979 39.5319 -0.0487432 21.4915 -89.8255 -23.8352
RightUpLeg  -2.35743 -8.29284 -5.00409
RightLeg  10.6256 4.96128 0.499605
RightFoot  -8.87522 -0.150851 4.17923
RightToes  -8.73116e-010 0 -3.6325e-017
Spine  7.07147 0.533496 10.1069
Spine1  7.20334 1.84987 -3.22435
HEad  -3.38956 1.70032 -8.61423
LeftShoulder1  -0.977764 5.99742 -33.0459
LeftArm  -9.11132 20.6304 -44.8646
LeftForeArm  29.7168 -7.93276 -6.24079
LeftHand  0.00893422 3.61847 -2.01917
RightShoulder  -0.820243 -5.96283 26.7422
RightArm  -1.35564 -6.4066 42.6371
RightForeArm  15.6929 15.8162 2.18625
RightHand  -0.267046 2.92293 -3.95511
LeftUpLeg  -1.15446 8.5347 10.1093
LeftLeg  7.88283 -5.26663 0.245581
LeftFoot  -4.33299 0.421952 -6.44946
LeftToes  -5.63919e-011 3.32596e-011 1.92487e-011
55
root  14.1418 39.3742 -0.173545 19.8337 -88.9263 -22.7344
RightUpLeg  -2.22061 -8.74803 -4.81918
RightLeg  12.3136 4.76087 0.88399
RightFoot  -10.5961 -0.0997912 4.31779
RightToes  -8.73116e-010 0 -3.6325e-017
Spine  7.41527 0.234396 11.3982
Spine1  7.93149 1.75052 -2.99307
HEad  -2.42907 0.877113 -8.32951
LeftShoulder1  -0.860863 5.66876 -33.5708
LeftArm  -8.30947 22.2454 -45.6763
LeftForeArm  32.0949 -7.3207 -6.78895
LeftHand  -0.0354696 5.48137 -2.916
RightShoulder  -0.945028 -6.26261 27.6847
RightArm  0.622694 -7.4142 43.621
RightForeArm  14.8947 16.2219 2.65508
RightHand  -0.278592 2.59965 -4.25691
LeftUpLeg  -2.50734 6.76836 10.6761
LeftLeg  11.4991 -4.09095 -0.0751909
LeftFoot  -5.55637 0.347236 -6.22632
LeftToes  -5.63919e-011 3.32596e-011 1.92487e-011
